<svg width="557" height="120" viewBox="0 0 557 120" fill="none" xmlns="http://www.w3.org/2000/svg">
  <path fill-rule="evenodd" clip-rule="evenodd" d="M26.9994 102C60.1365 102 86.9994 75.1371 86.9994 42C86.9994 26.1279 80.8363 11.6952 70.7727 0.964455C98.7688 6.0398 120 30.5405 120 60C120 93.1371 93.1371 120 60 120C42.7351 120 27.1733 112.708 16.2267 101.036C19.7216 101.669 23.3218 102 26.9994 102Z" fill="#00AA81"/>
  <path fill-rule="evenodd" clip-rule="evenodd" d="M103.773 101.035C100.278 101.669 96.6778 102 93 102C59.8629 102 33 75.1371 33 42C33 26.1279 39.163 11.6953 49.2265 0.964577C21.2309 6.04023 0 30.5407 0 60C0 93.1371 26.8629 120 60 120C77.265 120 92.8268 112.708 103.773 101.035Z" fill="#00CC9A"/>
  <path fill-rule="evenodd" clip-rule="evenodd" d="M117.094 78.5C118.98 72.6729 120 66.4555 120 60C120 26.8629 93.1371 0 60 0C26.8629 0 0 26.8629 0 60C0 66.4555 1.0195 72.6729 2.90628 78.5C10.7046 54.4159 33.3184 37 60 37C86.6816 37 109.295 54.4159 117.094 78.5Z" fill="#00FFC1"/>
  <path d="M222.96 43.68L210 88H197.92L189.84 57.04L181.76 88H169.6L156.56 43.68H167.92L175.76 77.44L184.24 43.68H196.08L204.4 77.36L212.24 43.68H222.96Z" fill="white"/>
  <path d="M239.42 50.56C240.86 48.2133 242.727 46.3733 245.02 45.04C247.367 43.7067 250.033 43.04 253.02 43.04V54.8H250.06C246.54 54.8 243.873 55.6267 242.06 57.28C240.3 58.9333 239.42 61.8133 239.42 65.92V88H228.22V43.68H239.42V50.56Z" fill="white"/>
  <path d="M265.444 38.4C263.47 38.4 261.817 37.7867 260.484 36.56C259.204 35.28 258.564 33.7067 258.564 31.84C258.564 29.9733 259.204 28.4267 260.484 27.2C261.817 25.92 263.47 25.28 265.444 25.28C267.417 25.28 269.044 25.92 270.324 27.2C271.657 28.4267 272.324 29.9733 272.324 31.84C272.324 33.7067 271.657 35.28 270.324 36.56C269.044 37.7867 267.417 38.4 265.444 38.4ZM270.964 43.68V88H259.764V43.68H270.964Z" fill="white"/>
  <path d="M298.189 88.72C294.563 88.72 291.309 88.08 288.429 86.8C285.549 85.4667 283.256 83.68 281.549 81.44C279.896 79.2 278.989 76.72 278.829 74H290.109C290.323 75.7067 291.149 77.12 292.589 78.24C294.083 79.36 295.923 79.92 298.109 79.92C300.243 79.92 301.896 79.4933 303.069 78.64C304.296 77.7867 304.909 76.6933 304.909 75.36C304.909 73.92 304.163 72.8533 302.669 72.16C301.229 71.4133 298.909 70.6133 295.709 69.76C292.403 68.96 289.683 68.1333 287.549 67.28C285.469 66.4267 283.656 65.12 282.109 63.36C280.616 61.6 279.869 59.2267 279.869 56.24C279.869 53.7867 280.563 51.5467 281.949 49.52C283.389 47.4933 285.416 45.8933 288.029 44.72C290.696 43.5467 293.816 42.96 297.389 42.96C302.669 42.96 306.883 44.2933 310.029 46.96C313.176 49.5733 314.909 53.12 315.229 57.6H304.509C304.349 55.84 303.603 54.4533 302.269 53.44C300.989 52.3733 299.256 51.84 297.069 51.84C295.043 51.84 293.469 52.2133 292.349 52.96C291.283 53.7067 290.749 54.7467 290.749 56.08C290.749 57.5733 291.496 58.72 292.989 59.52C294.483 60.2667 296.803 61.04 299.949 61.84C303.149 62.64 305.789 63.4667 307.869 64.32C309.949 65.1733 311.736 66.5067 313.229 68.32C314.776 70.08 315.576 72.4267 315.629 75.36C315.629 77.92 314.909 80.2133 313.469 82.24C312.083 84.2667 310.056 85.8667 307.389 87.04C304.776 88.16 301.709 88.72 298.189 88.72Z" fill="white"/>
  <path d="M337.063 52.88V74.32C337.063 75.8133 337.41 76.9067 338.103 77.6C338.85 78.24 340.076 78.56 341.783 78.56H346.983V88H339.943C330.503 88 325.783 83.4133 325.783 74.24V52.88H320.503V43.68H325.783V32.72H337.063V43.68H346.983V52.88H337.063Z" fill="white"/>
  <path d="M365.439 50.16C366.879 48.0267 368.852 46.2933 371.359 44.96C373.919 43.6267 376.825 42.96 380.079 42.96C383.865 42.96 387.279 43.8933 390.319 45.76C393.412 47.6267 395.839 50.2933 397.599 53.76C399.412 57.1733 400.319 61.1467 400.319 65.68C400.319 70.2133 399.412 74.24 397.599 77.76C395.839 81.2267 393.412 83.92 390.319 85.84C387.279 87.76 383.865 88.72 380.079 88.72C376.772 88.72 373.865 88.08 371.359 86.8C368.905 85.4667 366.932 83.76 365.439 81.68V88H354.239V28.8H365.439V50.16ZM388.879 65.68C388.879 63.0133 388.319 60.72 387.199 58.8C386.132 56.8267 384.692 55.3333 382.879 54.32C381.119 53.3067 379.199 52.8 377.119 52.8C375.092 52.8 373.172 53.3333 371.359 54.4C369.599 55.4133 368.159 56.9067 367.039 58.88C365.972 60.8533 365.439 63.1733 365.439 65.84C365.439 68.5067 365.972 70.8267 367.039 72.8C368.159 74.7733 369.599 76.2933 371.359 77.36C373.172 78.3733 375.092 78.88 377.119 78.88C379.199 78.88 381.119 78.3467 382.879 77.28C384.692 76.2133 386.132 74.6933 387.199 72.72C388.319 70.7467 388.879 68.4 388.879 65.68Z" fill="white"/>
  <path d="M404.777 65.68C404.777 61.2 405.658 57.2267 407.417 53.76C409.231 50.2933 411.658 47.6267 414.698 45.76C417.791 43.8933 421.231 42.96 425.017 42.96C428.324 42.96 431.204 43.6267 433.658 44.96C436.164 46.2933 438.164 47.9733 439.658 50V43.68H450.938V88H439.658V81.52C438.217 83.6 436.217 85.3333 433.658 86.72C431.151 88.0533 428.244 88.72 424.938 88.72C421.204 88.72 417.791 87.76 414.698 85.84C411.658 83.92 409.231 81.2267 407.417 77.76C405.658 74.24 404.777 70.2133 404.777 65.68ZM439.658 65.84C439.658 63.12 439.124 60.8 438.057 58.88C436.991 56.9067 435.551 55.4133 433.737 54.4C431.924 53.3333 429.977 52.8 427.897 52.8C425.818 52.8 423.898 53.3067 422.138 54.32C420.378 55.3333 418.938 56.8267 417.818 58.8C416.751 60.72 416.217 63.0133 416.217 65.68C416.217 68.3467 416.751 70.6933 417.818 72.72C418.938 74.6933 420.378 76.2133 422.138 77.28C423.951 78.3467 425.871 78.88 427.897 78.88C429.977 78.88 431.924 78.3733 433.737 77.36C435.551 76.2933 436.991 74.8 438.057 72.88C439.124 70.9067 439.658 68.56 439.658 65.84Z" fill="white"/>
  <path d="M485.636 43.04C490.916 43.04 495.183 44.72 498.436 48.08C501.69 51.3867 503.316 56.0267 503.316 62V88H492.116V63.52C492.116 60 491.236 57.3067 489.476 55.44C487.716 53.52 485.316 52.56 482.276 52.56C479.183 52.56 476.73 53.52 474.916 55.44C473.156 57.3067 472.276 60 472.276 63.52V88H461.076V43.68H472.276V49.2C473.77 47.28 475.663 45.7867 477.956 44.72C480.303 43.6 482.863 43.04 485.636 43.04Z" fill="white"/>
  <path d="M510.287 65.68C510.287 61.2 511.167 57.2267 512.927 53.76C514.74 50.2933 517.194 47.6267 520.287 45.76C523.38 43.8933 526.82 42.96 530.607 42.96C533.487 42.96 536.234 43.6 538.847 44.88C541.46 46.1067 543.54 47.76 545.087 49.84V28.8H556.447V88H545.087V81.44C543.7 83.6267 541.754 85.3867 539.247 86.72C536.74 88.0533 533.834 88.72 530.527 88.72C526.794 88.72 523.38 87.76 520.287 85.84C517.194 83.92 514.74 81.2267 512.927 77.76C511.167 74.24 510.287 70.2133 510.287 65.68ZM545.167 65.84C545.167 63.12 544.634 60.8 543.567 58.88C542.5 56.9067 541.06 55.4133 539.247 54.4C537.434 53.3333 535.487 52.8 533.407 52.8C531.327 52.8 529.407 53.3067 527.647 54.32C525.887 55.3333 524.447 56.8267 523.327 58.8C522.26 60.72 521.727 63.0133 521.727 65.68C521.727 68.3467 522.26 70.6933 523.327 72.72C524.447 74.6933 525.887 76.2133 527.647 77.28C529.46 78.3467 531.38 78.88 533.407 78.88C535.487 78.88 537.434 78.3733 539.247 77.36C541.06 76.2933 542.5 74.8 543.567 72.88C544.634 70.9067 545.167 68.56 545.167 65.84Z" fill="white"/>
</svg>
